<?xml version="1.0" encoding="UTF-8" standalone="no"?>
<!DOCTYPE svg PUBLIC "-//W3C//DTD SVG 1.1//EN" "http://www.w3.org/Graphics/SVG/1.1/DTD/svg11.dtd">
<!-- Created with Vectornator (http://vectornator.io/) -->
<svg height="100%" stroke-miterlimit="10" style="fill-rule:nonzero;clip-rule:evenodd;stroke-linecap:round;stroke-linejoin:round;" version="1.1" viewBox="68.7981 129.482 883.838 750.487" width="100%" xml:space="preserve" xmlns="http://www.w3.org/2000/svg" xmlns:vectornator="http://vectornator.io" xmlns:xlink="http://www.w3.org/1999/xlink">
<defs/>
<g id="Layer-2" vectornator:layerName="Layer 2">
<path d="M191.905 329.393L68.7981 590.126C68.7981 590.126 85.6043 585.393 120.566 573.396C107.339 672.682 142.662 733.435 142.662 733.435C142.662 733.435 146.07 695.237 162.864 679.457C208.592 773.722 403.499 879.969 403.499 879.969C403.499 879.969 240.518 781.703 169.939 591.391C149.617 618.526 146.157 640.729 146.157 640.729C146.157 640.729 128.777 587.044 170.649 498.393C141.636 523.635 124.505 540.632 124.505 540.632L191.905 329.393Z" fill="#ff6000" fill-rule="nonzero" opacity="1" stroke="none" vectornator:layerName="Curve 1"/>
<path d="M373.473 343.332C373.473 343.332 309.11 433.194 437.256 515.508C548.637 587.054 650.724 574.129 650.724 574.129L586.204 614.316L605.007 619.477L592.472 628.326C592.472 628.326 665.306 636.268 745.845 598.462C718.776 666.953 633.396 718.654 633.396 718.654C633.396 718.654 667.129 732.576 751.007 678.467C755.233 689.131 743.633 693.215 743.633 693.215C743.633 693.215 792.721 675.07 837.962 703.595C805.012 737.295 756.586 747.487 756.586 747.487C756.586 747.487 785.423 782.235 868.688 759.491C814.999 757.653 824.074 741.772 824.074 741.772C824.074 741.772 877.608 741.136 902.54 694.376C864.165 718.09 860.828 701.185 860.828 701.185C860.828 701.185 956.734 652.408 952.5 605.523C889.132 649.335 817.277 591.699 817.277 591.699C817.277 591.699 843.807 584.037 851.109 554.724C834.204 573.666 824.971 561.036 824.971 561.036C824.971 561.036 900.271 512 884.654 464.997C832.668 512 788.255 461.564 788.255 461.564C788.255 461.564 811.158 460.739 818.558 441.729C792.337 449.984 804.518 432.665 804.518 432.665C804.518 432.665 814.231 440.765 821.647 425.842C782.734 413.493 774.335 329.393 729.272 288.218C735.397 275.889 754.036 266.856 754.036 266.856L745.694 262.988C745.694 262.988 802.064 212.306 726.758 156.23C627.602 82.3966 591.512 184.835 591.512 184.835C591.512 184.835 560.456 162.003 484.809 163.59C303.221 167.399 305.109 237.575 307.201 290.391C310.639 377.212 373.473 343.332 373.473 343.332Z" fill="#ff6000" fill-rule="nonzero" opacity="1" stroke="none" vectornator:layerName="Curve 2"/>
<path d="M203.326 300.825C203.326 300.825 225.64 256.867 260.861 228.837C296.082 200.807 343.112 188.705 343.112 188.705C343.112 188.705 332.17 166.81 310.117 151.716C288.064 136.623 255.998 128.331 215.947 155.538C173.388 184.449 170.233 220.771 177.717 249.865C185.202 278.959 203.326 300.825 203.326 300.825Z" fill="#ff6000" fill-rule="nonzero" opacity="1" stroke="none" vectornator:layerName="Curve 3"/>
<path d="M578.8 314.512C578.8 300.457 590.194 289.063 604.249 289.063C618.305 289.063 629.699 300.457 629.699 314.512C629.699 328.567 618.305 339.961 604.249 339.961C590.194 339.961 578.8 328.567 578.8 314.512Z" fill="#040300" fill-rule="nonzero" opacity="1" stroke="none" vectornator:layerName="Oval 2"/>
<path d="M327.102 314.512C327.102 300.457 338.496 289.063 352.552 289.063C366.607 289.063 378.001 300.457 378.001 314.512C378.001 328.567 366.607 339.961 352.552 339.961C338.496 339.961 327.102 328.567 327.102 314.512Z" fill="#040300" fill-rule="nonzero" opacity="1" stroke="none" vectornator:layerName="Oval 1"/>
<path d="M442.505 353.33C449.495 332.905 504.04 337.914 511.351 354.721C515.916 365.214 495.496 382.226 478.284 381.879C461.073 381.531 439.041 363.451 442.505 353.33Z" fill="#040300" fill-rule="nonzero" opacity="1" stroke="none" vectornator:layerName="Curve 4"/>
<path d="M477.071 381.884L477.071 405.222" fill="#040300" fill-rule="nonzero" opacity="1" stroke="#040300" stroke-linecap="round" stroke-linejoin="round" stroke-width="15.7195" vectornator:layerName="Curve 5"/>
</g>
</svg>
